<?xml version='1.0' encoding='iso-8859-1'?>
<!DOCTYPE svg PUBLIC '-//W3C//DTD SVG 1.1//EN' 'http://www.w3.org/Graphics/SVG/1.1/DTD/svg11.dtd'>
<svg version="1.1" xmlns="http://www.w3.org/2000/svg" viewBox="0 0 512 512" xmlns:xlink="http://www.w3.org/1999/xlink" enable-background="new 0 0 512 512">
  <path d="M256,0C114.844,0,0,114.844,0,256s114.844,256,256,256s256-114.844,256-256S397.156,0,256,0z M448,256  c0,33.109-8.428,64.286-23.246,91.504L288,210.75V66.891C378.656,82.198,448,161.058,448,256z M224,445.109  c-36.898-6.23-70.176-22.973-96.76-47.1L224,301.25V445.109z M288,301.25l96.76,96.76c-26.584,24.127-59.861,40.869-96.76,47.1  V301.25z M224,66.891V210.75L87.246,347.504C72.428,320.286,64,289.109,64,256C64,161.058,133.344,82.198,224,66.891z"/>
</svg>
