<?xml version="1.0" encoding="iso-8859-1"?>
<!-- Generator: Adobe Illustrator 19.0.0, SVG Export Plug-In . SVG Version: 6.00 Build 0)  -->
<svg version="1.1" id="Capa_1" xmlns="http://www.w3.org/2000/svg" xmlns:xlink="http://www.w3.org/1999/xlink" x="0px" y="0px"
	 viewBox="0 0 511.999 511.999" style="enable-background:new 0 0 511.999 511.999;" xml:space="preserve">
<g>
	<g>
		<path d="M448.387,152.303h-16.548V55.597c0-12.976-10.557-23.532-23.532-23.532h-16.032c-12.976,0-23.533,10.557-23.533,23.532
			v32.581h-18.297c-3.139-9.309-11.946-16.032-22.3-16.032H263.5V55.081h16.548c12.976,0,23.532-10.556,23.532-23.532v-8.016
			C303.581,10.557,293.024,0,280.048,0h-48.097c-12.976,0-23.532,10.557-23.532,23.532v8.016c0,12.976,10.557,23.532,23.532,23.532
			H248.5v17.065h-64.645c-10.353,0-19.16,6.724-22.3,16.032h-18.297v-32.58c0-12.976-10.557-23.532-23.533-23.532h-16.032
			c-12.976,0-23.532,10.557-23.532,23.532v96.706H63.613c-8.556,0-15.516,6.96-15.516,15.516v16.032
			c0,8.556,6.96,15.517,15.516,15.517h16.548v99.779c-4.981,5.58-8.016,12.932-8.016,20.983v13.762l-8.844,13.266
			c-5.286,7.93-5.286,18.177,0,26.106l10.104,15.155c1.445,2.168,3.823,3.341,6.247,3.341c1.43,0,2.875-0.408,4.153-1.26
			c3.447-2.298,4.378-6.955,2.08-10.401l-10.103-15.155c-1.917-2.875-1.917-6.591,0-9.466l7.877-11.815h40.069l7.877,11.815
			c1.917,2.875,1.917,6.591,0,9.466l-10.104,15.155c-2.298,3.446-1.367,8.103,2.08,10.4c1.278,0.853,2.724,1.261,4.153,1.261
			c2.423,0,4.802-1.173,6.247-3.34l10.104-15.156c5.286-7.93,5.286-18.177,0-26.106l-8.844-13.266v-13.761
			c0-8.051-3.035-15.403-8.016-20.983V198.134c9.308-3.139,16.033-11.946,16.033-22.299v-40.593h18.297
			c2.344,6.951,7.849,12.455,14.8,14.799v178.104c0,12.976,10.557,23.532,23.532,23.532h24.564v75.946l-5.548-8.322
			c-4.375-6.562-11.694-10.479-19.58-10.479h-55.549c-12.976,0-23.533,10.557-23.533,23.532v56.113
			c0,12.976,10.557,23.532,23.533,23.532h40.081c12.976,0,23.532-10.557,23.532-23.532v-8.532h97.226v8.532
			c0,12.976,10.557,23.532,23.532,23.532h40.081c12.976,0,23.533-10.557,23.533-23.532v-56.113
			c0-12.976-10.557-23.532-23.533-23.532h-55.549c-7.886,0-15.206,3.918-19.58,10.479l-5.549,8.323v-75.946h24.564
			c12.976,0,23.532-10.557,23.532-23.532V150.042c6.951-2.344,12.455-7.849,14.8-14.799h18.297v40.593
			c0,10.354,6.724,19.16,16.033,22.299v101.012c-4.981,5.58-8.016,12.932-8.016,20.983v13.762l-8.844,13.266
			c-5.286,7.93-5.286,18.177,0,26.107l10.104,15.155c1.445,2.168,3.823,3.34,6.247,3.34c1.43,0,2.875-0.408,4.153-1.261
			c3.447-2.297,4.378-6.954,2.08-10.4l-10.104-15.155c-1.917-2.875-1.917-6.591,0-9.466l7.878-11.816h40.069l7.877,11.815
			c1.917,2.875,1.917,6.591,0,9.466l-10.104,15.155c-2.298,3.446-1.367,8.103,2.08,10.401c1.279,0.852,2.724,1.26,4.153,1.26
			c2.423,0,4.802-1.173,6.247-3.341l10.104-15.155c5.286-7.93,5.286-18.177,0-26.106l-8.844-13.266v-13.762
			c0-8.051-3.035-15.403-8.016-20.983v-99.779h16.548c8.556,0,15.516-6.961,15.516-15.517v-16.032
			C463.903,159.263,456.943,152.303,448.387,152.303z M80.161,184.367H63.613c-0.285,0-0.516-0.231-0.516-0.516v-16.032
			c0-0.284,0.231-0.516,0.516-0.516h16.548V184.367z M95.161,199.367h17.064v90.396c-2.715-0.765-5.575-1.182-8.532-1.182
			c-2.957,0-5.816,0.417-8.532,1.182V199.367z M120.241,328.661H87.145v-8.532c0-9.125,7.423-16.548,16.548-16.548
			s16.548,7.423,16.548,16.548V328.661z M128.258,175.835c0,4.704-3.828,8.532-8.533,8.532H95.161V55.597
			c0-4.705,3.828-8.532,8.532-8.532h16.032c4.705,0,8.533,3.828,8.533,8.532V175.835z M160.322,120.242h-17.064v-17.064h17.064
			V120.242z M231.951,40.08c-4.704,0.001-8.532-3.827-8.532-8.532v-8.016c0-4.705,3.828-8.532,8.532-8.532h48.097
			c4.705,0,8.532,3.828,8.532,8.532v8.016c0,4.705-3.828,8.532-8.532,8.532H231.951z M376.759,488.468
			c-0.001,4.704-3.828,8.532-8.533,8.532h-40.081c-4.705,0-8.532-3.828-8.532-8.532v-8.532h48.613c3.009,0,5.885-0.574,8.533-1.608
			V488.468z M299.064,437.392l6.514-9.77c1.585-2.379,4.239-3.8,7.099-3.8h55.549c4.705,0,8.533,3.828,8.533,8.532v24.049
			c0,4.705-3.828,8.532-8.533,8.532H183.855c-4.142,0-7.5,3.358-7.5,7.5c0,4.142,3.358,7.5,7.5,7.5h8.532v8.532
			c0,4.705-3.828,8.532-8.532,8.532h-40.081c-4.705,0-8.533-3.828-8.533-8.532v-10.14c2.647,1.034,5.523,1.608,8.533,1.608h8.015
			c4.142,0,7.5-3.358,7.5-7.5c0-4.142-3.358-7.5-7.5-7.5h-8.015c-4.705,0-8.533-3.828-8.533-8.532v-24.049
			c0-4.704,3.828-8.532,8.533-8.532h55.549c2.859,0,5.513,1.421,7.099,3.8l6.513,9.77c4.374,6.562,11.694,10.479,19.58,10.479
			h46.969C287.371,447.871,294.69,443.953,299.064,437.392z M272.548,368.742h-33.097v-17.064h33.097V368.742z M272.549,415.807
			v17.064h-33.097v-17.064H272.549z M272.548,383.743v17.064h-33.097v-17.064H272.548z M320.645,328.146
			c0,4.704-3.828,8.532-8.532,8.532H199.887c-4.705,0-8.532-3.828-8.532-8.532v-8.533h129.29V328.146z M320.645,184.371h-8.532
			c-4.142,0-7.5,3.357-7.5,7.5c0,4.142,3.358,7.5,7.5,7.5h8.532v105.242h-129.29V199.371h88.693c4.142,0,7.5-3.358,7.5-7.5
			c0-4.143-3.358-7.5-7.5-7.5h-88.693v-33.097h21.16c5.426,9.562,15.695,16.032,27.453,16.032h32.064
			c11.758,0,22.027-6.47,27.453-16.032h21.16V184.371z M223.421,135.758v-16.032c0-0.284,0.231-0.516,0.516-0.516h64.129
			c0.285,0,0.516,0.231,0.516,0.516v16.032h-0.001c0,9.125-7.423,16.549-16.548,16.549h-32.064
			C230.844,152.307,223.421,144.883,223.421,135.758z M336.676,127.742c0.001,4.704-3.826,8.532-8.531,8.532h-24.578
			c0.003-0.173,0.013-0.343,0.013-0.517v-16.032c0-8.556-6.96-15.516-15.516-15.516h-64.129c-8.556,0-15.516,6.96-15.516,15.516
			v16.032c0,0.173,0.01,0.344,0.013,0.517h-24.578c-4.705,0-8.532-3.828-8.532-8.532V95.678c0-4.705,3.828-8.532,8.532-8.532h144.29
			c4.705,0,8.532,3.827,8.532,8.532V127.742z M368.741,120.242h-17.064v-17.064h17.064V120.242z M383.742,175.836V55.597h0
			c0-4.705,3.828-8.532,8.533-8.532h16.032c4.705,0,8.532,3.828,8.532,8.532v128.771h-24.564
			C387.57,184.368,383.742,180.54,383.742,175.836z M416.839,199.367v90.396c-2.716-0.765-5.575-1.182-8.532-1.182
			c-2.957,0-5.816,0.417-8.532,1.182v-90.396H416.839z M424.854,328.661h-33.097v-8.532h0.001c0-9.125,7.423-16.548,16.548-16.548
			s16.548,7.423,16.548,16.548V328.661z M448.903,183.851c0,0.285-0.231,0.517-0.516,0.517h-16.548v-17.064h16.548
			c0.285,0,0.516,0.231,0.516,0.516V183.851z"/>
	</g>
</g>
<g>
</g>
<g>
</g>
<g>
</g>
<g>
</g>
<g>
</g>
<g>
</g>
<g>
</g>
<g>
</g>
<g>
</g>
<g>
</g>
<g>
</g>
<g>
</g>
<g>
</g>
<g>
</g>
<g>
</g>
</svg>
